<?xml version="1.0" standalone="no"?><!DOCTYPE svg PUBLIC "-//W3C//DTD SVG 1.1//EN" "http://www.w3.org/Graphics/SVG/1.1/DTD/svg11.dtd"><svg t="1735194051420" class="icon" viewBox="0 0 1024 1024" version="1.1" xmlns="http://www.w3.org/2000/svg" p-id="41147" xmlns:xlink="http://www.w3.org/1999/xlink" width="48" height="48"><path d="M947.3 853.9c-32.5-150.1-134.1-260.9-268-311.2 70.9-57.1 112.3-149.4 97.1-250.5C758.8 175 661.2 81.1 543.5 67.4 381 48.5 243.1 175 243.1 333.8c0 84.5 39.2 159.7 100.2 208.9-133.8 50.3-235.4 161.1-268 311.2-11.8 54.6 32.1 105.7 88 105.7h695.9c55.9 0 99.9-51.1 88.1-105.7zM332.5 333.8c0-98.6 80.2-178.8 178.8-178.8s178.8 80.2 178.8 178.8-80.2 178.8-178.8 178.8-178.8-80.3-178.8-178.8z m466.2 536.4H224c-30.9 0-53.8-31.2-42.1-59.8C236 677.8 363.2 602 511.3 602c148.2 0 275.3 75.9 329.4 208.4 11.8 28.6-11.1 59.8-42 59.8z" p-id="41148" fill="#707070"></path></svg>