<?xml version="1.0" standalone="no"?><!DOCTYPE svg PUBLIC "-//W3C//DTD SVG 1.1//EN" "http://www.w3.org/Graphics/SVG/1.1/DTD/svg11.dtd"><svg t="1735193455626" class="icon" viewBox="0 0 1024 1024" version="1.1" xmlns="http://www.w3.org/2000/svg" p-id="3566" xmlns:xlink="http://www.w3.org/1999/xlink" width="48" height="48"><path d="M105.472 347.876L66.389 394.78l39.083-62.549 375.24 234.553c16.696 9.756 45.823 9.756 62.548 0L918.5 332.231l39.082 62.55-39.082-46.905 39.082-46.905L918.5 363.52 543.26 128.996c-16.696-9.785-45.852-9.757-62.549 0L105.472 363.52l-39.083-62.55 39.083 46.906zM66.389 394.78c-31.601-27.192-31.658-66.56 0-93.81L441.63 58.625c40.05-21.02 100.579-21.077 140.714 0l375.24 242.347c31.601 27.221 31.658 66.56 0 93.81l-375.24 242.346c-40.05 21.02-100.58 21.077-140.715 0L66.39 394.78z m-7.822 70.372c-23.353 29.582-20.907 65.45 7.822 93.81l375.24 242.346c40.163 20.936 100.636 20.879 140.714 0l375.24-242.346c28.757-28.416 31.117-64.256 7.821-93.81-3.072 2.674-5.46 5.29-7.822 7.822L582.343 715.321c-40.078 20.963-100.551 20.992-140.715 0L66.39 472.974c-2.36-2.56-4.75-5.177-7.822-7.822z m0 164.181c-23.353 29.583-20.907 65.451 7.822 93.81L441.63 965.49c40.163 20.935 100.636 20.878 140.714 0l375.24-242.347c28.757-28.387 31.117-64.256 7.821-93.81-3.072 2.646-5.46 5.263-7.822 7.794L582.343 879.502c-40.078 20.935-100.551 20.964-140.715 0L66.39 637.127c-2.36-2.531-4.75-5.148-7.822-7.794z" p-id="3567" fill="#8a8a8a"></path></svg>