<?xml version="1.0" standalone="no"?><!DOCTYPE svg PUBLIC "-//W3C//DTD SVG 1.1//EN" "http://www.w3.org/Graphics/SVG/1.1/DTD/svg11.dtd"><svg t="1735127625683" class="icon" viewBox="0 0 1024 1024" version="1.1" xmlns="http://www.w3.org/2000/svg" p-id="1482" width="32" height="32" xmlns:xlink="http://www.w3.org/1999/xlink"><path d="M762 257.2 264.2 257.2c-24.2 0-39 0-39 40.8l0 56.2 576 0L801.2 298C801.2 257.2 786.4 257.2 762 257.2z" p-id="1483" fill="#515151"></path><path d="M666 193 360 193c-26.2 0-39 0.6-39 37.4l384 0C704.8 193.6 692.2 193 666 193z" p-id="1484" fill="#515151"></path><path d="M864.8 339.2l-31.8-18.8 0 64.6-642 0 0-64.6-30.4 18.8c-28.6 17.8-35.6 30.6-30 81.8l35 369.6c7.4 41.4 31.8 42.4 48 42.4l599.8 0c16.2 0 40.4-1 47.8-42.4l34.4-368.8C900.2 373 891.6 356.2 864.8 339.2z" p-id="1485" fill="#515151"></path></svg>