<?xml version="1.0" standalone="no"?><!DOCTYPE svg PUBLIC "-//W3C//DTD SVG 1.1//EN" "http://www.w3.org/Graphics/SVG/1.1/DTD/svg11.dtd"><svg t="1735130195920" class="icon" viewBox="0 0 1024 1024" version="1.1" xmlns="http://www.w3.org/2000/svg" p-id="4639" width="64" height="64" xmlns:xlink="http://www.w3.org/1999/xlink"><path d="M705.5 527l-30-30L482 690.5 288.5 497l-30 30L452 720.5l30 30L705.5 527z m0 226.5l-30.00000001-30L482 915.49999999 288.5 723.50000001l-30 29.99999999L451.99999999 947l30.00000001 30 223.5-223.5z" fill="#515151" p-id="4640"></path><path d="M705.5 76.99999999l-30-29.99999999L482 240.5 288.5 47l-30 29.99999999L452 270.5l30 29.99999999L705.5 76.99999999z m0 226.50000001l-30-30L482 465.5 288.5 273.5l-30 30L452 497l30 30 223.5-223.5z" fill="#515151" p-id="4641"></path></svg>