<?xml version="1.0" standalone="no"?><!DOCTYPE svg PUBLIC "-//W3C//DTD SVG 1.1//EN" "http://www.w3.org/Graphics/SVG/1.1/DTD/svg11.dtd"><svg t="1735193956318" class="icon" viewBox="0 0 1024 1024" version="1.1" xmlns="http://www.w3.org/2000/svg" p-id="33800" xmlns:xlink="http://www.w3.org/1999/xlink" width="48" height="48"><path d="M558.545455 768V558.545455h209.454545c116.363636 0 209.454545 93.090909 209.454545 209.454545S884.363636 977.454545 768 977.454545 558.545455 884.363636 558.545455 768z m93.090909 0c0 65.163636 51.2 116.363636 116.363636 116.363636s116.363636-51.2 116.363636-116.363636-51.2-116.363636-116.363636-116.363636H651.636364v116.363636z m-558.545455 0C93.090909 651.636364 186.181818 558.545455 302.545455 558.545455H512v209.454545C512 884.363636 418.909091 977.454545 302.545455 977.454545S93.090909 884.363636 93.090909 768z m93.090909 0C186.181818 833.163636 237.381818 884.363636 302.545455 884.363636S418.909091 833.163636 418.909091 768V651.636364H302.545455C237.381818 651.636364 186.181818 702.836364 186.181818 768z m372.363637-256V302.545455C558.545455 186.181818 651.636364 93.090909 768 93.090909S977.454545 186.181818 977.454545 302.545455 884.363636 512 768 512H558.545455z m93.090909-209.454545V418.909091h116.363636C833.163636 418.909091 884.363636 367.709091 884.363636 302.545455S833.163636 186.181818 768 186.181818 651.636364 237.381818 651.636364 302.545455zM302.545455 512C186.181818 512 93.090909 418.909091 93.090909 302.545455S186.181818 93.090909 302.545455 93.090909 512 186.181818 512 302.545455V512H302.545455zM186.181818 302.545455C186.181818 367.709091 237.381818 418.909091 302.545455 418.909091H418.909091V302.545455C418.909091 237.381818 367.709091 186.181818 302.545455 186.181818S186.181818 237.381818 186.181818 302.545455z" fill="#707070" p-id="33801"></path></svg>