<?xml version="1.0" standalone="no"?><!DOCTYPE svg PUBLIC "-//W3C//DTD SVG 1.1//EN" "http://www.w3.org/Graphics/SVG/1.1/DTD/svg11.dtd"><svg t="1735193869735" class="icon" viewBox="0 0 1024 1024" version="1.1" xmlns="http://www.w3.org/2000/svg" p-id="30852" xmlns:xlink="http://www.w3.org/1999/xlink" width="48" height="48"><path d="M352.567 685.302a190.801 190.801 0 0 0 269.48 0l128.325-128.324a190.542 190.542 0 0 0 0-269.48 45.367 45.367 0 0 0-64.162 64.81 99.808 99.808 0 0 1 0 141.156L557.886 621.788a99.808 99.808 0 1 1-141.157-142.193l32.794-32.794a45.367 45.367 0 0 0-64.162-64.81l-32.794 33.83a190.542 190.542 0 0 0 0 269.481z" p-id="30853" fill="#707070"></path><path d="M1002.613 174.34a202.078 202.078 0 0 0-55.607-117.696 190.542 190.542 0 0 0-269.48 0L549.2 184.968a190.801 190.801 0 0 0 0 269.48 45.367 45.367 0 1 0 64.162-64.161 99.937 99.937 0 0 1 0-141.157l128.324-128.324a99.808 99.808 0 0 1 141.157 0 110.048 110.048 0 0 1 29.553 63.384 92.29 92.29 0 0 1-29.553 77.773 45.367 45.367 0 0 0 64.162 64.81 183.802 183.802 0 0 0 55.607-152.434z" p-id="30854" fill="#707070"></path><path d="M912.656 677.914a45.367 45.367 0 0 0-60.662 20.869 396.12 396.12 0 1 1-530.017-530.277 45.367 45.367 0 1 0-39.794-81.53 486.854 486.854 0 1 0 651.342 651.86 45.367 45.367 0 0 0-20.869-60.922z" p-id="30855" fill="#707070"></path></svg>