<?xml version="1.0" standalone="no"?><!DOCTYPE svg PUBLIC "-//W3C//DTD SVG 1.1//EN" "http://www.w3.org/Graphics/SVG/1.1/DTD/svg11.dtd"><svg t="1735194627607" class="icon" viewBox="0 0 1024 1024" version="1.1" xmlns="http://www.w3.org/2000/svg" p-id="5409" xmlns:xlink="http://www.w3.org/1999/xlink" width="48" height="48"><path d="M239.8 672.2c-61.6 0-111.8 50.2-111.8 111.6 0 61.6 50.2 111.2 111.8 111.2 61.8 0 111.8-49.8 111.8-111.2C351.6 722.4 301.6 672.2 239.8 672.2zM239.8 863c-44 0-79.8-35.6-79.8-79.2 0-43.8 35.8-79.6 79.8-79.6 44 0 79.8 35.8 79.8 79.6C319.6 827.4 283.8 863 239.8 863z" p-id="5410" fill="#707070"></path><path d="M128 384l0 159.8c96 0 188.2 28.4 256 96.2 67.8 67.8 96 159.8 96 256l160 0C640 616.2 408 384 128 384zM607 864l-96 0c-6.2-99.4-42-184.2-104.4-246.6C344.2 554.8 260 519 160 512.8l0-95.6c52 3.6 104.2 16 153.4 37 57 24.4 108.4 59.2 152.8 103.6 44.4 44.4 79.2 95.8 103.6 152.8C591 759.8 603.4 811.2 607 864z" p-id="5411" fill="#707070"></path><path d="M128 128l0 159.8c342 0 607.8 266 607.8 608.2L896 896C896 472.6 552 128 128 128zM582.8 441C470.8 328.8 322 264 160 256.4L160 160.6C540 177 847 483.6 863.4 864l-96.4 0C759.4 702.2 694.6 553 582.8 441z" p-id="5412" fill="#707070"></path></svg>