<?xml version="1.0" standalone="no"?><!DOCTYPE svg PUBLIC "-//W3C//DTD SVG 1.1//EN" "http://www.w3.org/Graphics/SVG/1.1/DTD/svg11.dtd"><svg t="1735194022214" class="icon" viewBox="0 0 1024 1024" version="1.1" xmlns="http://www.w3.org/2000/svg" p-id="37442" xmlns:xlink="http://www.w3.org/1999/xlink" width="48" height="48"><path d="M837.14983 574.330435c0-12.243478-4.452174-23.373913-13.356522-31.165218L408.62809 133.565217c-7.791304-7.791304-17.808696-12.243478-28.93913-12.243478L48.002003 100.173913c-13.356522-1.113043-25.6 4.452174-34.504347 13.356522-8.904348 8.904348-14.469565 21.147826-13.356522 34.504348l21.147826 326.121739c1.113043 11.130435 5.565217 21.147826 13.356522 28.93913l416.278261 408.486957c8.904348 8.904348 20.034783 13.356522 31.165217 13.356521 11.130435 0 22.26087-4.452174 31.165217-13.356521L823.793308 605.495652c8.904348-7.791304 13.356522-18.921739 13.356522-31.165217zM482.08896 816.973913L110.332438 450.782609 92.523743 192.556522l264.904347 16.695652 371.756522 365.078261-247.095652 242.643478zM289.532438 291.617391c12.243478 12.243478 20.034783 30.052174 20.034783 46.747826 0 17.808696-6.678261 34.504348-20.034783 46.747826-12.243478 12.243478-30.052174 20.034783-47.860869 20.034783-17.808696 0-34.504348-6.678261-47.86087-20.034783-12.243478-12.243478-20.034783-30.052174-20.034782-46.747826 0-17.808696 6.678261-34.504348 20.034782-46.747826 12.243478-12.243478 30.052174-20.034783 47.86087-20.034782 17.808696 0 35.617391 7.791304 47.860869 20.034782z m734.608696 282.713044c0 10.017391-4.452174 20.034783-11.130435 27.826087L702.471569 907.130435c-7.791304 7.791304-17.808696 11.130435-27.826087 11.130435-10.017391 0-20.034783-3.33913-27.826087-11.130435-15.582609-15.582609-15.582609-40.069565 0-54.539131l282.713043-277.147826-388.452174-381.773913c-15.582609-15.582609-15.582609-40.069565 0-54.53913 15.582609-15.582609 40.069565-15.582609 55.652174 0L1013.010699 546.504348c6.678261 7.791304 11.130435 17.808696 11.130435 27.826087z" p-id="37443" fill="#707070"></path></svg>