<?xml version="1.0" standalone="no"?><!DOCTYPE svg PUBLIC "-//W3C//DTD SVG 1.1//EN" "http://www.w3.org/Graphics/SVG/1.1/DTD/svg11.dtd"><svg t="1735194469805" class="icon" viewBox="0 0 1024 1024" version="1.1" xmlns="http://www.w3.org/2000/svg" p-id="47620" xmlns:xlink="http://www.w3.org/1999/xlink" width="48" height="48"><path d="M597.333333 597.333333a85.333333 85.333333 0 1 1-170.666666 0 85.333333 85.333333 0 0 1 170.666666 0zM277.333333 277.333333A21.333333 21.333333 0 0 0 256 298.666667v128a21.333333 21.333333 0 0 0 21.333333 21.333333h469.333334a21.333333 21.333333 0 0 0 21.333333-21.333333V298.666667a21.333333 21.333333 0 0 0-21.333333-21.333334h-469.333334z" p-id="47621" fill="#707070"></path><path d="M288 128A160 160 0 0 0 128 288V746.666667c0 41.216 33.450667 74.666667 74.666667 74.666666h60.458666l-40.96 61.44a8.533333 8.533333 0 0 0 7.125334 13.226667h565.418666a8.533333 8.533333 0 0 0 7.125334-13.226667l-40.96-61.44h60.458666A74.666667 74.666667 0 0 0 896 746.666667V288A160 160 0 0 0 736 128H288zM192 288A96 96 0 0 1 288 192h448a96 96 0 0 1 96 96V746.666667a10.666667 10.666667 0 0 1-10.666667 10.666666H202.666667a10.666667 10.666667 0 0 1-10.666667-10.666666V288z" p-id="47622" fill="#707070"></path></svg>