<?xml version="1.0" standalone="no"?><!DOCTYPE svg PUBLIC "-//W3C//DTD SVG 1.1//EN" "http://www.w3.org/Graphics/SVG/1.1/DTD/svg11.dtd"><svg t="1735197549050" class="icon" viewBox="0 0 1024 1024" version="1.1" xmlns="http://www.w3.org/2000/svg" p-id="6560" xmlns:xlink="http://www.w3.org/1999/xlink" width="48" height="48"><path d="M263.111111 294.4c129.422222-147.911111 352.711111-156.444444 492.088889-25.6v-75.377778c0-15.644444 12.8-28.444444 28.444444-28.444444s28.444444 12.8 28.444445 28.444444v142.222222c0 15.644444-12.8 28.444444-28.444445 28.444445h-142.222222c-15.644444 0-28.444444-12.8-28.444444-28.444445s12.8-28.444444 28.444444-28.444444h71.111111c-112.355556-102.4-285.866667-98.133333-393.955555 11.377778-103.822222 105.244444-108.088889 278.755556-8.533334 389.688889 109.511111 122.311111 298.666667 126.577778 412.444445 11.377777 29.866667-29.866667 52.622222-66.844444 66.844444-105.244444 4.266667-11.377778 14.222222-18.488889 27.022223-18.488889 19.911111 0 34.133333 19.911111 27.022222 38.4-17.066667 45.511111-42.666667 88.177778-79.644445 125.155556-137.955556 137.955556-366.933333 133.688889-497.777777-15.644445-113.777778-128-113.777778-321.422222-2.844445-449.422222z" p-id="6561" fill="#707070"></path><path d="M645.688889 628.622222L512 551.822222V371.2c0-15.644444-12.8-28.444444-28.444444-28.444444s-28.444444 12.8-28.444445 28.444444v196.266667c0 9.955556 5.688889 19.911111 14.222222 24.177777l147.911111 85.333334c14.222222 8.533333 31.288889 2.844444 38.4-9.955556 8.533333-14.222222 2.844444-31.288889-9.955555-38.4z" p-id="6562" fill="#707070"></path></svg>